<?xml version="1.0" encoding="UTF-8" standalone="no"?>
<!DOCTYPE svg PUBLIC "-//W3C//DTD SVG 1.1//EN" "http://www.w3.org/Graphics/SVG/1.1/DTD/svg11.dtd">
<svg width="100%" height="100%" viewBox="0 0 160 166" version="1.1" xmlns="http://www.w3.org/2000/svg" xmlns:xlink="http://www.w3.org/1999/xlink" xml:space="preserve" xmlns:serif="http://www.serif.com/" style="fill-rule:evenodd;clip-rule:evenodd;stroke-linejoin:round;stroke-miterlimit:2;">
    <g transform="matrix(1,0,0,1,-1053.63,-4.92935)">
        <g id="Bitcoin" transform="matrix(0.0890458,0,0,1,1053.4,2.06723)">
            <rect x="2.66" y="2.862" width="1792.72" height="165.617" style="fill:none;"/>
            <g id="Layer-1" serif:id="Layer 1" transform="matrix(27.5511,0,0,2.45331,-7358.82,-643.617)">
                <g transform="matrix(0.241929,-0.970294,-0.970294,-0.241929,314.704,269.395)">
                    <path d="M-31.041,-24.251C-48.711,-24.251 -63.033,-9.927 -63.035,7.742C-63.033,25.405 -48.709,39.73 -31.041,39.727C-13.372,39.731 0.952,25.407 0.952,7.743C0.953,-9.927 -13.374,-24.249 -31.041,-24.251" style="fill:rgb(247,147,26);fill-rule:nonzero;"/>
                </g>
                <g transform="matrix(1,0,0,1,306.858,301.087)">
                    <path d="M0,-8.067C-0.99,-4.101 -7.101,-6.116 -9.082,-6.61L-7.334,-13.62C-5.353,-13.126 1.031,-12.204 0,-8.067M-1.086,3.244C-2.171,7.603 -9.512,5.248 -11.893,4.656L-9.964,-3.073C-7.584,-2.479 0.048,-1.302 -1.086,3.244M6.936,-8.004C7.573,-12.262 4.331,-14.551 -0.103,-16.078L1.336,-21.846L-2.175,-22.721L-3.575,-17.105C-4.498,-17.335 -5.446,-17.552 -6.387,-17.767L-4.978,-23.42L-8.486,-24.295L-9.925,-18.529C-10.689,-18.703 -11.439,-18.875 -12.167,-19.056L-12.163,-19.074L-17.005,-20.283L-17.939,-16.533C-17.939,-16.533 -15.334,-15.936 -15.39,-15.899C-13.967,-15.544 -13.71,-14.603 -13.753,-13.857L-15.392,-7.286C-15.293,-7.261 -15.166,-7.224 -15.026,-7.169C-15.144,-7.198 -15.269,-7.23 -15.397,-7.261L-17.693,1.944C-17.867,2.376 -18.309,3.023 -19.302,2.778C-19.268,2.829 -21.854,2.141 -21.854,2.141L-23.598,6.161L-19.028,7.301C-18.179,7.514 -17.346,7.736 -16.525,7.946L-17.979,13.78L-14.472,14.655L-13.033,8.882C-12.075,9.142 -11.146,9.382 -10.235,9.609L-11.669,15.353L-8.158,16.228L-6.705,10.406C-0.719,11.539 3.784,11.082 5.679,5.668C7.206,1.308 5.603,-1.207 2.453,-2.848C4.747,-3.378 6.475,-4.887 6.936,-8.004" style="fill:white;fill-rule:nonzero;"/>
                </g>
            </g>
            <g id="Layer-11" serif:id="Layer 1">
            </g>
        </g>
    </g>
</svg>
