<?xml version="1.0" encoding="utf-8"?>
<!-- Generator: Adobe Illustrator 24.0.1, SVG Export Plug-In . SVG Version: 6.00 Build 0)  -->
<svg version="1.1" id="Layer_1" xmlns="http://www.w3.org/2000/svg" xmlns:xlink="http://www.w3.org/1999/xlink" x="0px" y="0px"
	 viewBox="0 0 500 164.2" style="enable-background:new 0 0 500 164.2;" xml:space="preserve">
<style type="text/css">
	.st0{fill:#FFCC29;}
	.st1{fill:#FFFFFF;}
</style>
<rect x="0.5" y="-0.1" width="500" height="164.2"/>
<g>
	<rect x="158" y="46.8" class="st0" width="3" height="70.3"/>
	<rect x="216.2" y="46.8" class="st0" width="3.3" height="70.3"/>
	<polygon class="st0" points="450.3,117.2 453.6,117.2 453.6,46.8 450.3,46.8 	"/>
	<rect x="391.7" y="46.8" class="st0" width="3.3" height="70.3"/>
	<rect x="274.8" y="46.8" class="st0" width="3.2" height="70.3"/>
	<rect x="333.2" y="46.8" class="st0" width="3.3" height="70.3"/>
	<path class="st1" d="M185.6,58.6l-14.5,46.8h6.7l3.4-11.8h15l3.4,11.8h6.6l-14.3-46.8H185.6z M182.6,88.5l5.9-20.4h0.2l5.8,20.4
		H182.6z"/>
	<path class="st1" d="M131.3,86.6v-5h14.5v17l0,0c-1.3,2.1-3.1,3.9-5.2,5.1c-2.8,1.7-6,2.3-9.2,2.3c-4.4,0-8.8-1.4-11.9-4.5
		c-3-2.9-4.5-7.3-4.5-12.8V75c0-5.4,1.5-9.6,4.3-12.5c2.9-3.1,7-4.6,11.3-4.6c4.1,0,8,0.9,11,3.7c2.8,2.6,4.1,6.3,4.2,10.1l0,0.2
		h-6.3c0.1-2.4-0.7-4.9-2.3-6.7c-1.6-1.7-4-2.3-6.5-2.3c-2.6,0-5.1,1.1-6.7,3.2c-1.7,2.1-2.4,5-2.4,9v14c0,4,0.9,7,2.7,9.1
		c1.8,2.1,4.4,3.2,7.2,3.2c1.8,0,3.7-0.3,5.2-1.2c1.2-0.7,2-1.8,2.6-3V86.6H131.3z"/>
	<polygon class="st1" points="257.1,58.6 265.7,58.6 265.7,105.4 259.1,105.4 259.1,87.4 259.7,69.4 259.5,69.4 249.3,105.4 
		244.9,105.4 234.7,69.4 234.6,69.4 235.1,87.4 235.1,105.4 228.6,105.4 228.6,58.6 237,58.6 247.1,95.6 247.1,95.6 	"/>
	<polygon class="st1" points="373.1,58.6 379.6,58.6 379.6,105.4 373.1,105.4 355.4,70.6 355.1,70.6 355.1,105.4 348.6,105.4 
		348.6,58.6 355.1,58.6 372.8,93.4 373.1,93.3 	"/>
	<polygon class="st1" points="294.5,58.6 316.6,58.6 316.6,63.7 308.8,63.7 308.8,100.2 316.6,100.2 316.6,105.4 294.5,105.4 
		294.5,100.1 302.3,100.1 302.3,63.6 294.5,63.6 	"/>
	<g>
		<path class="st0" d="M50.4,117.2h49.2c1.7,0,3-1.3,3-3V49.8c0-1.7-1.3-3-3-3H50.4c-1.7,0-3,1.3-3,3v64.3
			C47.4,115.8,48.8,117.2,50.4,117.2z"/>
		<path d="M89.8,84.9c-1.2-2-3.2-3.3-5.5-3.8c1.9-0.8,3.5-2.1,4.5-3.9c1-1.8,1.5-3.9,1.5-5.9c0-3.8-1.2-7.3-4.1-9.5
			c-2.9-2.2-6.3-3.2-10.3-3.2v0H61v0v46.9v0h16.8v0c3.6,0,7.2-1.2,9.9-3.6c2.6-2.2,3.9-5.7,3.9-10.2C91.6,89,91,86.9,89.8,84.9z
			 M69.7,65.9h4.6c2,0,3.4,0.4,4.6,1.6c1.2,1.2,1.6,3,1.5,4.7c0,1.6-0.3,3.3-1.5,4.5c-1.1,1.1-2.4,1.7-4.2,1.7h-5.1V65.9z
			 M80.3,96.6c-1.1,1.2-2.9,1.5-4.5,1.5h-6V84.7h6.7c1.7,0,3.3,0.5,4.2,1.8c1,1.5,1.2,3.3,1.2,5.1C81.8,93.4,81.5,95.3,80.3,96.6z"
			/>
	</g>
	<path class="st1" d="M423.6,86.6v-5h14.5v17l0,0c-1.3,2.1-3.1,3.9-5.2,5.1c-2.8,1.7-6,2.3-9.2,2.3c-4.4,0-8.8-1.4-11.9-4.5
		c-3-2.9-4.5-7.3-4.5-12.8V74.9c0-5.4,1.5-9.6,4.3-12.5c2.9-3.1,7-4.6,11.3-4.6c4.1,0,8,0.9,11,3.7c2.8,2.6,4.1,6.3,4.2,10.1l0,0.2
		h-6.3c0.1-2.4-0.7-4.9-2.3-6.7c-1.6-1.7-4-2.3-6.5-2.3c-2.6,0-5.1,1.1-6.7,3.2c-1.7,2.1-2.4,5-2.4,9v14c0,4,0.9,7,2.7,9.1
		c1.8,2.1,4.4,3.2,7.2,3.2c1.8,0,3.7-0.3,5.2-1.2c1.2-0.7,2-1.8,2.6-3V86.6H423.6z"/>
</g>
</svg>
