<svg width="140" height="46" fill="none" xmlns="http://www.w3.org/2000/svg"><g clip-path="url(#a)" fill-rule="evenodd" clip-rule="evenodd"><path d="M14.08 10.523a7.132 7.132 0 0 0-2.791-1.507 11.835 11.835 0 0 0-3.349-.483c-.91 0-1.817.129-2.693.383a7.496 7.496 0 0 0-2.385 1.166 6.067 6.067 0 0 0-1.717 1.963 5.68 5.68 0 0 0-.657 2.8v7.394a5.584 5.584 0 0 0 .67 2.8 5.997 5.997 0 0 0 1.744 1.95 7.55 7.55 0 0 0 2.427 1.138 10.19 10.19 0 0 0 2.693.37 10.84 10.84 0 0 0 3.28-.5 7.83 7.83 0 0 0 2.748-1.494l-2.093-3.526a6.055 6.055 0 0 1-2.01 1.095 6.7 6.7 0 0 1-1.841.27 3.8 3.8 0 0 1-1.116-.17 3.161 3.161 0 0 1-1.019-.527 2.683 2.683 0 0 1-.751-.936 3.177 3.177 0 0 1-.293-1.436v-5.546a3.178 3.178 0 0 1 .293-1.436c.176-.365.428-.685.74-.939.299-.238.64-.416 1.003-.526a3.8 3.8 0 0 1 1.117-.17 7.263 7.263 0 0 1 1.911.27c.718.213 1.38.587 1.94 1.095l2.149-3.498Zm14.23 17.774h4.745l-6.67-19.594H21.81l-6.78 19.595H19.8l1.145-3.868h6.195l1.17 3.867Zm-5.86-8.9 1.535-5.404h.113l1.534 5.403.39 1.337H22.06l.39-1.336Zm26.985 1.35a4 4 0 0 0-.795-1.621 5.937 5.937 0 0 0-1.716-1.393 13.088 13.088 0 0 0-2.958-1.15c-.78-.228-1.441-.432-1.982-.612a7.552 7.552 0 0 1-1.311-.555 2.141 2.141 0 0 1-.712-.582 1.137 1.137 0 0 1-.21-.669c-.015-.24.039-.481.156-.691.116-.21.29-.38.5-.489a3.594 3.594 0 0 1 1.717-.355c.763 0 1.525.076 2.274.227a7.467 7.467 0 0 1 2.497 1.109l1.982-3.64a9.19 9.19 0 0 0-3.391-1.507 17.542 17.542 0 0 0-3.307-.313 9.622 9.622 0 0 0-2.832.4 6.605 6.605 0 0 0-2.233 1.15 5.248 5.248 0 0 0-1.451 1.82 5.442 5.442 0 0 0-.516 2.403c-.018.747.105 1.49.363 2.19a4.34 4.34 0 0 0 1.076 1.576 6.362 6.362 0 0 0 1.743 1.137c.769.342 1.562.623 2.373.84a35.07 35.07 0 0 1 2.048.625c.457.15.9.34 1.326.569.281.143.525.352.711.611a1.35 1.35 0 0 1 .056 1.35c-.127.237-.31.437-.53.584a3.137 3.137 0 0 1-.991.44 5.837 5.837 0 0 1-1.535.171 7.02 7.02 0 0 1-2.497-.469 8.997 8.997 0 0 1-2.47-1.464l-2.483 3.327c.555.502 1.158.945 1.8 1.323.58.34 1.192.615 1.828.824a9.78 9.78 0 0 0 1.911.413c.68.076 1.364.114 2.049.113 1.002.005 2-.12 2.972-.37a7.508 7.508 0 0 0 2.455-1.108 5.542 5.542 0 0 0 1.659-1.835 5.182 5.182 0 0 0 .613-2.574 8.227 8.227 0 0 0-.189-1.805ZM52.84 8.703v19.594h4.436V8.703H52.84Zm12.92 8.332 3.414 5.29 3.972 5.972h3.973V8.703h-4.44v11.262h-.083l-4.214-6.515-3.209-4.75h-3.99v19.597h4.439V17.035h.14-.003Zm29.579-2.161a5.774 5.774 0 0 0-.655-2.816 5.956 5.956 0 0 0-1.727-1.976 7.841 7.841 0 0 0-2.423-1.18 9.573 9.573 0 0 0-2.716-.4c-.912 0-1.821.125-2.702.37a7.574 7.574 0 0 0-2.41 1.137 6.04 6.04 0 0 0-1.74 1.934 5.513 5.513 0 0 0-.668 2.787v7.367a6.091 6.091 0 0 0 .612 2.816 5.79 5.79 0 0 0 1.659 1.99 7.313 7.313 0 0 0 2.395 1.195c.93.27 1.89.405 2.856.4a10.2 10.2 0 0 0 2.868-.4 7.143 7.143 0 0 0 2.395-1.194 5.856 5.856 0 0 0 1.644-1.991c.426-.873.636-1.84.613-2.816v-7.223h-.001Zm-4.44 6.4c.016.494-.08.985-.278 1.436-.167.363-.41.683-.712.938-.294.24-.63.419-.99.526-.354.111-.72.169-1.09.171a3.66 3.66 0 0 1-1.101-.17 3.023 3.023 0 0 1-.99-.527 2.613 2.613 0 0 1-.727-.938 3.313 3.313 0 0 1-.279-1.436v-5.547c-.015-.494.08-.985.28-1.436a2.62 2.62 0 0 1 .725-.939c.296-.236.632-.414.99-.526a3.66 3.66 0 0 1 1.103-.17c.369.002.735.06 1.088.17.36.108.697.287.99.526.303.256.546.576.713.939.198.45.294.942.279 1.436V21.274Z" fill="#fff"/><path d="M103.249 27.729c.434-.502.668-1.151.656-1.82a2.483 2.483 0 0 0-.187-.975 2.427 2.427 0 0 0-.552-.817 2.535 2.535 0 0 0-1.272-.665 2.496 2.496 0 0 0-1.421.139c-.292.12-.558.299-.78.526-.225.229-.405.5-.53.796a2.49 2.49 0 0 0-.196.996c-.006.34.055.678.18.994.124.315.31.601.546.84.23.245.509.439.816.569.307.13.638.192.97.185a2.19 2.19 0 0 0 .97-.18c.306-.132.58-.334.8-.588Zm4.342-19.026v19.594h4.436v-7.224h2.735l2.902 7.224h4.744l-3.432-7.991a6.09 6.09 0 0 0 1.311-1.038c.38-.394.713-.833.991-1.308.269-.464.48-.96.627-1.479a5.603 5.603 0 0 0 .224-1.55 8.227 8.227 0 0 0-.321-2.261 5.62 5.62 0 0 0-1.033-2.005 5.24 5.24 0 0 0-1.828-1.422 6.169 6.169 0 0 0-2.707-.54h-8.651.002Zm4.436 4.01h3.29a2.19 2.19 0 0 1 .947.126c.303.111.579.288.809.518a2.3 2.3 0 0 1 .558 1.56 2.102 2.102 0 0 1-.647 1.666 2.035 2.035 0 0 1-.775.462c-.289.093-.594.119-.894.076h-3.293v-4.408h.005Zm27.485 9.356V8.703h-4.439V21.33c.015.494-.08.985-.279 1.436-.166.363-.41.683-.712.938a2.85 2.85 0 0 1-.99.526 3.72 3.72 0 0 1-1.089.17c-.373 0-.745-.057-1.102-.17a3.025 3.025 0 0 1-.99-.526 2.617 2.617 0 0 1-.726-.939 3.321 3.321 0 0 1-.279-1.436V8.704h-4.439v13.48a5.781 5.781 0 0 0 .641 2.8 5.91 5.91 0 0 0 1.699 1.962 7.42 7.42 0 0 0 2.41 1.166c.902.257 1.834.386 2.771.384.937.001 1.87-.134 2.771-.4a7.326 7.326 0 0 0 2.409-1.208 6.156 6.156 0 0 0 1.699-2.005 5.87 5.87 0 0 0 .645-2.813Z" fill="#2F8F41"/></g><path d="M2.082 39.315V42.5h-.66v-7.82h2.664c.813 0 1.454.207 1.923.623.472.415.709.986.709 1.713 0 .734-.228 1.302-.683 1.703-.45.397-1.106.596-1.965.596H2.082Zm0-.559h2.004c.64 0 1.13-.152 1.466-.456.337-.305.505-.729.505-1.273 0-.54-.168-.97-.505-1.29-.333-.322-.807-.486-1.423-.493H2.082v3.512Zm10.589 1.553H9.12L8.313 42.5h-.692l2.96-7.82h.627l2.96 7.82h-.688l-.81-2.191Zm-3.347-.564h3.137l-1.568-4.26-1.569 4.26Zm11.668-4.501h-4.05v2.83h1.94c.533 0 .995.09 1.385.269.39.175.687.43.892.762.207.33.311.72.311 1.171 0 .691-.23 1.236-.693 1.633-.462.394-1.1.591-1.917.591h-2.584v-7.82h4.716v.564Zm-4.05 3.394v3.303h1.934c.605 0 1.078-.148 1.418-.445.34-.301.51-.711.51-1.23 0-.494-.165-.887-.494-1.177-.33-.293-.791-.444-1.386-.45h-1.982Zm13.048.376c0 .72-.125 1.352-.376 1.896-.247.544-.601.963-1.063 1.257-.462.294-.996.44-1.6.44-.914 0-1.652-.325-2.214-.977-.562-.655-.843-1.538-.843-2.648v-.806c0-.712.125-1.343.376-1.89.254-.552.612-.974 1.074-1.268.462-.297.994-.446 1.595-.446.602 0 1.132.145 1.59.435.462.29.819.7 1.07 1.23.25.53.38 1.144.391 1.843v.934Zm-.66-.849c0-.941-.213-1.679-.64-2.212-.426-.534-1.01-.8-1.75-.8-.727 0-1.308.268-1.74.805-.43.534-.645 1.28-.645 2.24v.816c0 .928.215 1.663.644 2.208.43.54 1.014.81 1.751.81.749 0 1.332-.266 1.751-.8.42-.537.629-1.283.629-2.24v-.826Zm8.472-2.921h-2.68V42.5h-.661v-7.256h-2.675v-.564h6.016v.564Zm6.05 5.065H40.3l-.806 2.191h-.693l2.96-7.82h.628l2.96 7.82h-.688l-.81-2.191Zm-3.347-.564h3.137l-1.569-4.26-1.568 4.26Zm11.308-.994h-3.658v3.19h4.206v.559h-4.866v-7.82h4.839v.564h-4.179v2.948h3.658v.559Zm8.348-3.507h-2.68V42.5h-.66v-7.256h-2.675v-.564h6.015v.564Zm11.245 4.818c-.09.823-.385 1.453-.886 1.89-.498.437-1.162.655-1.992.655-.58 0-1.094-.145-1.542-.435-.444-.29-.788-.7-1.031-1.23-.244-.533-.367-1.142-.37-1.826v-1.015c0-.695.12-1.31.364-1.848.244-.537.593-.95 1.048-1.24.458-.294.984-.44 1.579-.44.838 0 1.498.227 1.982.681.487.452.77 1.076.848 1.875h-.666c-.164-1.328-.886-1.993-2.164-1.993-.71 0-1.275.265-1.697.795-.42.53-.629 1.262-.629 2.197v.956c0 .902.204 1.622.612 2.16.412.536.967.805 1.666.805.69 0 1.212-.165 1.563-.494.35-.333.567-.831.65-1.493h.665Zm9 2.438h-.644v-7.047l-2.127.79v-.602l2.664-.988h.107V42.5Zm8.112-3.62c-.229.337-.513.598-.853.784-.34.183-.71.274-1.107.274-.444 0-.836-.115-1.176-.344a2.25 2.25 0 0 1-.79-.95 3.135 3.135 0 0 1-.28-1.327c0-.516.1-.985.296-1.407.2-.423.478-.75.833-.983a2.19 2.19 0 0 1 1.235-.355c.784 0 1.395.276 1.832.827.437.548.655 1.327.655 2.337v.58c0 1.41-.3 2.47-.902 3.18-.602.709-1.52 1.063-2.756 1.063h-.118l.005-.558h.226c.935-.015 1.645-.28 2.132-.795.487-.516.743-1.291.769-2.326Zm-1.88.505c.43 0 .815-.127 1.155-.382.344-.257.588-.59.73-.999v-.37c0-.795-.166-1.411-.499-1.848-.33-.44-.775-.66-1.337-.66-.509 0-.926.205-1.252.617-.325.408-.488.924-.488 1.547 0 .598.155 1.098.467 1.499.315.397.723.596 1.225.596Zm8.972-.505c-.23.337-.514.598-.854.784-.34.183-.709.274-1.106.274-.444 0-.837-.115-1.177-.344a2.25 2.25 0 0 1-.79-.95 3.135 3.135 0 0 1-.279-1.327c0-.516.099-.985.296-1.407.2-.423.478-.75.832-.983a2.19 2.19 0 0 1 1.236-.355c.784 0 1.394.276 1.831.827.437.548.656 1.327.656 2.337v.58c0 1.41-.301 2.47-.903 3.18-.601.709-1.52 1.063-2.755 1.063h-.118l.005-.558h.226c.934-.015 1.645-.28 2.132-.795.487-.516.743-1.291.768-2.326Zm-1.88.505c.43 0 .815-.127 1.155-.382.344-.257.587-.59.73-.999v-.37c0-.795-.166-1.411-.5-1.848-.328-.44-.774-.66-1.337-.66-.508 0-.925.205-1.251.617-.326.408-.489.924-.489 1.547 0 .598.156 1.098.468 1.499.315.397.723.596 1.224.596Zm8.751-4.764v.564h-.075c-.934 0-1.67.275-2.207.827-.537.548-.835 1.31-.892 2.288.215-.297.489-.527.822-.688a2.484 2.484 0 0 1 1.117-.247c.688 0 1.234.238 1.638.715.408.472.613 1.092.613 1.858 0 .508-.095.967-.285 1.375-.19.408-.462.727-.817.956a2.21 2.21 0 0 1-1.213.338c-.749 0-1.358-.27-1.827-.81-.469-.545-.703-1.247-.703-2.106v-.645c0-1.4.319-2.483.956-3.25.637-.769 1.541-1.161 2.712-1.175h.161Zm-1.337 3.297c-.408 0-.79.122-1.144.366-.351.24-.585.546-.704.918v.548c0 .68.174 1.235.521 1.665.351.43.806.645 1.365.645.501 0 .905-.2 1.213-.597.312-.397.468-.898.468-1.504 0-.615-.156-1.11-.468-1.482-.308-.372-.725-.558-1.251-.558Zm13.275-2.674h-4.055V42.5h-.66v-7.82h4.715v.564Zm7.753 3.77c0 .72-.126 1.352-.376 1.896-.247.544-.602.963-1.064 1.257-.462.294-.995.44-1.6.44-.914 0-1.651-.325-2.213-.977-.563-.655-.844-1.538-.844-2.648v-.806c0-.712.126-1.343.376-1.89.255-.552.613-.974 1.075-1.268.462-.297.993-.446 1.595-.446.601 0 1.131.145 1.59.435.462.29.818.7 1.068 1.23.251.53.382 1.144.393 1.843v.934Zm-.661-.849c0-.941-.213-1.679-.639-2.212-.426-.534-1.01-.8-1.751-.8-.727 0-1.307.268-1.74.805-.43.534-.645 1.28-.645 2.24v.816c0 .928.215 1.663.645 2.208.429.54 1.013.81 1.751.81.748 0 1.332-.266 1.751-.8.418-.537.628-1.283.628-2.24v-.826Zm8.918 3.776h.832l-.005 2.455h-.661V42.5h-5.897v1.896h-.661v-2.455h.521c.398-.415.718-1.02.961-1.815a10.72 10.72 0 0 0 .446-2.621l.14-2.825h4.324v7.261Zm-5.103 0h4.442v-6.697h-3.029l-.108 2.24a11.123 11.123 0 0 1-.413 2.572c-.226.784-.523 1.413-.892 1.885Zm12.576-1.632h-3.551l-.805 2.191h-.693l2.959-7.82h.629l2.959 7.82h-.687l-.811-2.191Zm-3.347-.564h3.137l-1.568-4.26-1.569 4.26Z" fill="#999"/><defs><clipPath id="a"><path fill="#fff" transform="translate(0 8.5)" d="M0 0h140v20H0z"/></clipPath></defs></svg>