<?xml version="1.0" encoding="UTF-8" standalone="no"?>
<!DOCTYPE svg PUBLIC "-//W3C//DTD SVG 1.1//EN" "http://www.w3.org/Graphics/SVG/1.1/DTD/svg11.dtd">
<svg width="100%" height="100%" viewBox="0 0 272 166" version="1.1" xmlns="http://www.w3.org/2000/svg" xmlns:xlink="http://www.w3.org/1999/xlink" xml:space="preserve" xmlns:serif="http://www.serif.com/" style="fill-rule:evenodd;clip-rule:evenodd;stroke-miterlimit:2;">
    <g transform="matrix(1,0,0,1,-507.785,-4.92935)">
        <g id="Mastercard" transform="matrix(0.151332,0,0,1,507.383,2.06723)">
            <rect x="2.66" y="2.862" width="1792.72" height="165.617" style="fill:none;"/>
            <g transform="matrix(27.5333,0,0,4.16667,-3642.96,-216.377)">
                <g transform="matrix(0.344319,0,0,0.344319,131.856,39.2531)">
                    <path d="M133.829,152.367L136.718,152.291L139.57,152.083L142.365,151.725L145.142,151.234L147.842,150.611L150.505,149.855L153.111,148.968L155.661,147.967L158.154,146.833L160.572,145.606L162.913,144.246L165.199,142.792L167.389,141.224L169.505,139.562L171.544,137.806L173.49,135.936L175.359,133.991L177.116,131.951L178.778,129.836L180.345,127.645L181.8,125.36L183.159,123.018L184.387,120.6L185.52,118.107L186.521,115.558L187.409,112.951L188.164,110.288L188.787,107.588L189.279,104.811L189.637,102.016L189.845,99.164L189.921,96.275L189.845,93.404L189.637,90.571L189.279,87.776L188.787,85.038L188.164,82.337L187.409,79.693L186.521,77.087L185.52,74.556L184.387,72.082L183.159,69.664L181.8,67.341L180.345,65.056L178.778,62.865L177.116,60.769L175.359,58.729L173.49,56.784L171.544,54.933L169.505,53.177L167.389,51.515L165.199,49.947L162.913,48.493L160.572,47.152L158.154,45.924L155.661,44.791L153.111,43.79L150.505,42.902L147.842,42.147L145.142,41.524L142.365,41.033L139.57,40.674L136.718,40.466L133.829,40.391L130.958,40.466L128.106,40.674L125.311,41.033L122.554,41.524L119.853,42.147L117.19,42.902L114.602,43.79L112.053,44.791L109.579,45.924L107.18,47.152L104.838,48.493L102.572,49.947L100.381,51.515L98.266,53.177L96.245,54.933L94.3,56.784L92.449,58.729L90.692,60.769L89.03,62.865L87.482,65.056L86.027,67.341L84.687,69.664L83.44,72.082L82.326,74.556L81.325,77.087L80.456,79.693L79.701,82.337L79.078,85.038L78.587,87.776L78.228,90.571L78.02,93.404L77.944,96.275L78.02,99.164L78.228,102.016L78.587,104.811L79.078,107.588L79.701,110.288L80.456,112.951L81.325,115.558L82.326,118.107L83.44,120.6L84.687,123.018L86.027,125.36L87.482,127.645L89.03,129.836L90.692,131.951L92.449,133.991L94.3,135.936L96.245,137.806L98.266,139.562L100.381,141.224L102.572,142.792L104.838,144.246L107.18,145.606L109.579,146.833L112.053,147.967L114.602,148.968L117.19,149.855L119.853,150.611L122.554,151.234L125.311,151.725L128.106,152.083L130.958,152.291L133.829,152.367Z" style="fill:rgb(252,179,48);"/>
                </g>
                <g transform="matrix(0.344319,0,0,0.344319,131.856,39.2531)">
                    <path d="M58.926,152.367L61.797,152.291L64.648,152.083L67.444,151.725L70.201,151.234L72.902,150.611L75.564,149.855L78.152,148.968L80.702,147.967L83.176,146.833L85.574,145.606L87.916,144.246L90.182,142.792L92.373,141.224L94.489,139.562L96.509,137.806L98.455,135.936L100.306,133.991L102.062,131.951L103.724,129.836L105.272,127.645L106.727,125.36L108.068,123.018L109.314,120.6L110.428,118.107L111.43,115.558L112.298,112.951L113.054,110.288L113.677,107.588L114.168,104.811L114.527,102.016L114.734,99.164L114.81,96.275L114.734,93.404L114.527,90.571L114.168,87.776L113.677,85.038L113.054,82.337L112.298,79.693L111.43,77.087L110.428,74.556L109.314,72.082L108.068,69.664L106.727,67.341L105.272,65.056L103.724,62.865L102.062,60.769L100.306,58.729L98.455,56.784L96.509,54.933L94.489,53.177L92.373,51.515L90.182,49.947L87.916,48.493L85.574,47.152L83.176,45.924L80.702,44.791L78.152,43.79L75.564,42.902L72.902,42.147L70.201,41.524L67.444,41.033L64.648,40.674L61.797,40.466L58.926,40.391L56.036,40.466L53.184,40.674L50.389,41.033L47.613,41.524L44.912,42.147L42.249,42.902L39.643,43.79L37.093,44.791L34.6,45.924L32.183,47.152L29.841,48.493L27.556,49.947L25.365,51.515L23.25,53.177L21.21,54.933L19.265,56.784L17.395,58.729L15.639,60.769L13.977,62.865L12.409,65.056L10.955,67.341L9.595,69.664L8.367,72.082L7.234,74.556L6.233,77.087L5.346,79.693L4.59,82.337L3.967,85.038L3.476,87.776L3.117,90.571L2.909,93.404L2.834,96.275L2.909,99.164L3.117,102.016L3.476,104.811L3.967,107.588L4.59,110.288L5.346,112.951L6.233,115.558L7.234,118.107L8.367,120.6L9.595,123.018L10.955,125.36L12.409,127.645L13.977,129.836L15.639,131.951L17.395,133.991L19.265,135.936L21.21,137.806L23.25,139.562L25.365,141.224L27.556,142.792L29.841,144.246L32.183,145.606L34.6,146.833L37.093,147.967L39.643,148.968L42.249,149.855L44.912,150.611L47.613,151.234L50.389,151.725L53.184,152.083L56.036,152.291L58.926,152.367Z" style="fill:rgb(237,27,45);"/>
                </g>
                <g transform="matrix(0.344319,0,0,0.344319,131.856,39.2531)">
                    <path d="M89.824,61.864L119.57,61.864L119.57,58.824L92.392,58.824L89.824,61.864Z" style="fill:rgb(252,179,48);"/>
                </g>
                <g transform="matrix(0.344319,0,0,0.344319,131.856,39.2531)">
                    <path d="M85.366,68.626L119.57,68.626L119.57,65.585L87.161,65.585L85.366,68.626Z" style="fill:rgb(252,179,48);"/>
                </g>
                <g transform="matrix(0.344319,0,0,0.344319,131.856,39.2531)">
                    <path d="M82.042,75.368L119.57,75.368L119.57,72.327L83.365,72.327L82.042,75.368Z" style="fill:rgb(252,179,48);"/>
                </g>
                <g transform="matrix(0.344319,0,0,0.344319,131.856,39.2531)">
                    <path d="M79.757,82.129L119.57,82.129L119.57,79.089L80.702,79.089L79.757,82.129Z" style="fill:rgb(252,179,48);"/>
                </g>
                <g transform="matrix(0.344319,0,0,0.344319,131.856,39.2531)">
                    <path d="M81.079,114.802L119.664,114.802L119.664,111.762L80.135,111.762L81.079,114.802Z" style="fill:rgb(252,179,48);"/>
                </g>
                <g transform="matrix(0.344319,0,0,0.344319,131.856,39.2531)">
                    <path d="M83.931,121.564L119.664,121.564L119.664,118.523L82.515,118.523L83.931,121.564Z" style="fill:rgb(252,179,48);"/>
                </g>
                <g transform="matrix(0.344319,0,0,0.344319,131.856,39.2531)">
                    <path d="M87.935,128.306L119.664,128.306L119.664,125.265L86.027,125.265L87.935,128.306Z" style="fill:rgb(252,179,48);"/>
                </g>
                <g transform="matrix(0.344319,0,0,0.344319,131.856,39.2531)">
                    <path d="M93.45,135.067L119.664,135.067L119.664,132.008L90.787,132.008L93.45,135.067Z" style="fill:rgb(252,179,48);"/>
                </g>
                <g transform="matrix(0.344319,0,0,0.344319,131.856,39.2531)">
                    <path d="M78.416,88.872L119.57,88.872L119.57,85.831L79.002,85.831L78.416,88.872Z" style="fill:rgb(252,179,48);"/>
                </g>
                <g transform="matrix(0.344319,0,0,0.344319,131.856,39.2531)">
                    <path d="M103.497,108.06L119.192,108.06L119.192,105.019L104.064,105.019L103.497,108.06Z" style="fill:rgb(252,179,48);"/>
                </g>
                <g transform="matrix(0.344319,0,0,0.344319,131.856,39.2531)">
                    <path d="M104.744,101.318L119.192,101.318L119.192,98.258L105.31,98.258L104.744,101.318Z" style="fill:rgb(252,179,48);"/>
                </g>
                <g transform="matrix(0.344319,0,0,0.344319,131.856,39.2531)">
                    <path d="M77.378,98.258L81.457,98.258L81.457,101.318L77.567,101.318L77.378,98.258Z" style="fill:rgb(252,179,48);"/>
                </g>
                <g transform="matrix(0.344319,0,0,0.344319,131.856,39.2531)">
                    <path d="M69.766,94.575L69.502,94.556L69.238,94.518L68.992,94.481L68.747,94.443L68.52,94.405L68.275,94.367L68.029,94.33L67.765,94.292L67.5,94.254L67.198,94.235L66.858,94.216L66.499,94.198L66.102,94.198L65.668,94.216L65.177,94.254L64.63,94.292L64.252,94.349L63.893,94.405L63.572,94.518L63.288,94.632L63.024,94.764L62.779,94.915L62.59,95.104L62.42,95.274L62.307,95.482L62.212,95.69L62.174,95.916L62.174,96.143L62.231,96.388L62.307,96.634L62.458,96.879L62.646,97.125L63.024,97.484L63.477,97.767L64.006,98.012L64.573,98.22L65.177,98.409L65.8,98.617L66.424,98.844L67.028,99.089L67.595,99.41L68.123,99.807L68.596,100.279L68.992,100.864L69.294,101.582L69.483,102.432L69.559,103.452L69.483,104.642L69.351,105.529L69.124,106.304L68.822,107.021L68.444,107.644L68.01,108.192L67.519,108.664L66.99,109.08L66.405,109.439L65.8,109.722L65.177,109.968L64.535,110.156L63.874,110.307L63.232,110.421L62.609,110.477L61.985,110.515L61.4,110.534L60.588,110.534L59.832,110.515L59.171,110.515L58.548,110.496L57.981,110.477L57.472,110.44L57.018,110.402L56.584,110.345L56.187,110.307L55.829,110.232L55.47,110.175L55.149,110.081L54.827,110.005L54.525,109.892L54.223,109.779L53.902,109.665L54.752,105.491L54.922,105.529L55.13,105.586L55.394,105.661L55.715,105.737L56.055,105.813L56.433,105.888L56.848,105.982L57.302,106.058L57.774,106.133L58.265,106.209L58.775,106.266L59.304,106.323L59.851,106.341L60.399,106.36L60.947,106.36L61.494,106.341L62.042,106.228L62.476,106.077L62.816,105.869L63.081,105.605L63.269,105.34L63.421,105.038L63.515,104.736L63.591,104.453L63.628,103.905L63.459,103.433L63.137,103.055L62.665,102.734L62.099,102.451L61.438,102.168L60.701,101.903L59.965,101.601L59.209,101.261L58.491,100.864L57.83,100.373L57.226,99.788L56.754,99.07L56.414,98.22L56.244,97.2L56.263,95.992L56.357,95.255L56.49,94.556L56.678,93.914L56.905,93.31L57.207,92.743L57.547,92.252L57.944,91.78L58.416,91.365L58.964,91.006L59.568,90.704L60.248,90.42L61.003,90.213L61.853,90.043L62.779,89.91L63.798,89.835L64.913,89.816L65.611,89.816L66.254,89.835L66.839,89.854L67.368,89.873L67.84,89.91L68.275,89.948L68.652,89.986L68.992,90.024L69.313,90.062L69.578,90.118L69.823,90.156L70.05,90.194L70.239,90.231L70.409,90.25L70.579,90.288L70.73,90.307L69.766,94.575Z" style="fill:white;"/>
                </g>
                <g transform="matrix(0.344319,0,0,0.344319,131.856,39.2531)">
                    <path d="M69.766,94.575L69.502,94.556L69.238,94.518L68.992,94.481L68.747,94.443L68.52,94.405L68.275,94.367L68.029,94.33L67.765,94.292L67.5,94.254L67.198,94.235L66.858,94.216L66.499,94.198L66.102,94.198L65.668,94.216L65.177,94.254L64.63,94.292L64.252,94.349L63.893,94.405L63.572,94.518L63.288,94.632L63.024,94.764L62.779,94.915L62.59,95.104L62.42,95.274L62.307,95.482L62.212,95.69L62.174,95.916L62.174,96.143L62.231,96.388L62.307,96.634L62.458,96.879L62.646,97.125L63.024,97.484L63.477,97.767L64.006,98.012L64.573,98.22L65.177,98.409L65.8,98.617L66.424,98.844L67.028,99.089L67.595,99.41L68.123,99.807L68.596,100.279L68.992,100.864L69.294,101.582L69.483,102.432L69.559,103.452L69.483,104.642L69.351,105.529L69.124,106.304L68.822,107.021L68.444,107.644L68.01,108.192L67.519,108.664L66.99,109.08L66.405,109.439L65.8,109.722L65.177,109.968L64.535,110.156L63.874,110.307L63.232,110.421L62.609,110.477L61.985,110.515L61.4,110.534L60.588,110.534L59.832,110.515L59.171,110.515L58.548,110.496L57.981,110.477L57.472,110.44L57.018,110.402L56.584,110.345L56.187,110.307L55.829,110.232L55.47,110.175L55.149,110.081L54.827,110.005L54.525,109.892L54.223,109.779L53.902,109.665L54.752,105.491L54.922,105.529L55.13,105.586L55.394,105.661L55.715,105.737L56.055,105.813L56.433,105.888L56.848,105.982L57.302,106.058L57.774,106.133L58.265,106.209L58.775,106.266L59.304,106.323L59.851,106.341L60.399,106.36L60.947,106.36L61.494,106.341L62.042,106.228L62.476,106.077L62.816,105.869L63.081,105.605L63.269,105.34L63.421,105.038L63.515,104.736L63.591,104.453L63.628,103.905L63.459,103.433L63.137,103.055L62.665,102.734L62.099,102.451L61.438,102.168L60.701,101.903L59.965,101.601L59.209,101.261L58.491,100.864L57.83,100.373L57.226,99.788L56.754,99.07L56.414,98.22L56.244,97.2L56.263,95.992L56.357,95.255L56.49,94.556L56.678,93.914L56.905,93.31L57.207,92.743L57.547,92.252L57.944,91.78L58.416,91.365L58.964,91.006L59.568,90.704L60.248,90.42L61.003,90.213L61.853,90.043L62.779,89.91L63.798,89.835L64.913,89.816L65.611,89.816L66.254,89.835L66.839,89.854L67.368,89.873L67.84,89.91L68.275,89.948L68.652,89.986L68.992,90.024L69.313,90.062L69.578,90.118L69.823,90.156L70.05,90.194L70.239,90.231L70.409,90.25L70.579,90.288L70.73,90.307L69.766,94.575Z" style="fill:none;stroke:white;stroke-width:0.63px;"/>
                </g>
                <g transform="matrix(0.344319,0,0,0.344319,131.856,39.2531)">
                    <path d="M74.242,85.642L79.474,85.642L78.7,90.213L81.854,90.213L81.174,94.481L77.85,94.386L76.037,104.925L76.018,105.303L76.112,105.624L76.301,105.869L76.547,106.077L76.887,106.209L77.264,106.323L77.68,106.398L78.133,106.436L78.549,106.417L78.926,106.379L79.266,106.323L79.568,106.247L79.814,106.171L79.984,106.115L80.097,106.077L80.135,106.058L79.474,109.571L79.342,109.665L79.21,109.741L79.078,109.816L78.945,109.892L78.813,109.949L78.662,110.005L78.492,110.062L78.322,110.119L78.133,110.175L77.944,110.213L77.718,110.251L77.491,110.288L77.245,110.326L76.962,110.364L76.66,110.402L76.339,110.44L74.903,110.44L74.148,110.383L73.487,110.307L72.883,110.194L72.373,110.062L71.938,109.892L71.58,109.703L71.258,109.476L71.013,109.231L70.824,108.966L70.692,108.646L70.598,108.324L70.541,107.966L70.522,107.569L70.522,107.153L70.579,106.719L70.635,106.247L74.242,85.642Z" style="fill:white;"/>
                </g>
                <g transform="matrix(0.344319,0,0,0.344319,131.856,39.2531)">
                    <path d="M74.242,85.642L79.474,85.642L78.7,90.213L81.854,90.213L81.174,94.481L77.85,94.386L76.037,104.925L76.018,105.303L76.112,105.624L76.301,105.869L76.547,106.077L76.887,106.209L77.264,106.323L77.68,106.398L78.133,106.436L78.549,106.417L78.926,106.379L79.266,106.323L79.568,106.247L79.814,106.171L79.984,106.115L80.097,106.077L80.135,106.058L79.474,109.571L79.342,109.665L79.21,109.741L79.078,109.816L78.945,109.892L78.813,109.949L78.662,110.005L78.492,110.062L78.322,110.119L78.133,110.175L77.944,110.213L77.718,110.251L77.491,110.288L77.245,110.326L76.962,110.364L76.66,110.402L76.339,110.44L74.903,110.44L74.148,110.383L73.487,110.307L72.883,110.194L72.373,110.062L71.938,109.892L71.58,109.703L71.258,109.476L71.013,109.231L70.824,108.966L70.692,108.646L70.598,108.324L70.541,107.966L70.522,107.569L70.522,107.153L70.579,106.719L70.635,106.247L74.242,85.642Z" style="fill:none;stroke:white;stroke-width:0.63px;"/>
                </g>
                <g transform="matrix(0.344319,0,0,0.344319,131.856,39.2531)">
                    <path d="M86.027,101.601L85.971,101.922L85.952,102.262L85.99,102.621L86.065,102.98L86.198,103.338L86.349,103.678L86.556,104.037L86.783,104.358L87.047,104.679L87.331,104.962L87.633,105.246L87.973,105.472L88.313,105.68L88.691,105.85L89.068,105.982L89.446,106.058L89.937,106.133L90.409,106.19L90.9,106.247L91.391,106.285L91.882,106.304L92.392,106.304L92.883,106.285L93.393,106.247L93.903,106.171L94.413,106.077L94.942,105.964L95.452,105.794L95.98,105.586L96.528,105.359L97.057,105.057L97.605,104.736L96.849,109.382L96.547,109.533L96.245,109.684L95.943,109.798L95.66,109.911L95.376,110.005L95.074,110.1L94.772,110.175L94.451,110.232L94.111,110.288L93.733,110.326L93.337,110.364L92.902,110.402L92.411,110.421L91.901,110.421L91.316,110.44L90.692,110.44L89.767,110.421L88.823,110.326L87.878,110.194L86.934,109.968L86.009,109.684L85.121,109.325L84.271,108.853L83.478,108.305L82.741,107.663L82.099,106.889L81.552,106.02L81.098,105.019L80.777,103.905L80.569,102.639L80.513,101.242L80.608,99.693L80.683,99.089L80.796,98.39L80.947,97.654L81.155,96.861L81.438,96.048L81.778,95.236L82.213,94.405L82.741,93.612L83.346,92.857L84.082,92.139L84.913,91.497L85.858,90.93L86.953,90.458L88.181,90.118L89.54,89.892L91.07,89.816L91.807,89.835L92.581,89.91L93.355,90.043L94.13,90.231L94.885,90.515L95.622,90.855L96.302,91.308L96.925,91.837L97.491,92.479L97.964,93.234L98.341,94.103L98.606,95.104L98.757,96.237L98.776,97.522L98.644,98.957L98.36,100.543L98.266,101.695L84.498,101.695L85.366,97.975L93.639,97.975L93.676,97.503L93.657,97.049L93.62,96.634L93.544,96.256L93.412,95.897L93.28,95.576L93.091,95.293L92.902,95.028L92.676,94.802L92.43,94.613L92.147,94.443L91.863,94.292L91.561,94.179L91.259,94.103L90.938,94.047L90.598,94.009L90.239,94.028L89.899,94.084L89.578,94.16L89.257,94.273L88.936,94.424L88.653,94.594L88.369,94.802L88.124,95.028L87.878,95.293L87.652,95.576L87.444,95.878L87.274,96.199L87.104,96.539L86.972,96.917L86.859,97.295L86.783,97.691L86.027,101.601Z" style="fill:white;"/>
                </g>
                <g transform="matrix(0.344319,0,0,0.344319,131.856,39.2531)">
                    <path d="M86.027,101.601L85.971,101.922L85.952,102.262L85.99,102.621L86.065,102.98L86.198,103.338L86.349,103.678L86.556,104.037L86.783,104.358L87.047,104.679L87.331,104.962L87.633,105.246L87.973,105.472L88.313,105.68L88.691,105.85L89.068,105.982L89.446,106.058L89.937,106.133L90.409,106.19L90.9,106.247L91.391,106.285L91.882,106.304L92.392,106.304L92.883,106.285L93.393,106.247L93.903,106.171L94.413,106.077L94.942,105.964L95.452,105.794L95.98,105.586L96.528,105.359L97.057,105.057L97.605,104.736L96.849,109.382L96.547,109.533L96.245,109.684L95.943,109.798L95.66,109.911L95.376,110.005L95.074,110.1L94.772,110.175L94.451,110.232L94.111,110.288L93.733,110.326L93.337,110.364L92.902,110.402L92.411,110.421L91.901,110.421L91.316,110.44L90.692,110.44L89.767,110.421L88.823,110.326L87.878,110.194L86.934,109.968L86.009,109.684L85.121,109.325L84.271,108.853L83.478,108.305L82.741,107.663L82.099,106.889L81.552,106.02L81.098,105.019L80.777,103.905L80.569,102.639L80.513,101.242L80.608,99.693L80.683,99.089L80.796,98.39L80.947,97.654L81.155,96.861L81.438,96.048L81.778,95.236L82.213,94.405L82.741,93.612L83.346,92.857L84.082,92.139L84.913,91.497L85.858,90.93L86.953,90.458L88.181,90.118L89.54,89.892L91.07,89.816L91.807,89.835L92.581,89.91L93.355,90.043L94.13,90.231L94.885,90.515L95.622,90.855L96.302,91.308L96.925,91.837L97.491,92.479L97.964,93.234L98.341,94.103L98.606,95.104L98.757,96.237L98.776,97.522L98.644,98.957L98.36,100.543L98.266,101.695L84.498,101.695L85.366,97.975L93.639,97.975L93.676,97.503L93.657,97.049L93.62,96.634L93.544,96.256L93.412,95.897L93.28,95.576L93.091,95.293L92.902,95.028L92.676,94.802L92.43,94.613L92.147,94.443L91.863,94.292L91.561,94.179L91.259,94.103L90.938,94.047L90.598,94.009L90.239,94.028L89.899,94.084L89.578,94.16L89.257,94.273L88.936,94.424L88.653,94.594L88.369,94.802L88.124,95.028L87.878,95.293L87.652,95.576L87.444,95.878L87.274,96.199L87.104,96.539L86.972,96.917L86.859,97.295L86.783,97.691L86.027,101.601Z" style="fill:none;stroke:white;stroke-width:0.63px;"/>
                </g>
                <g transform="matrix(0.344319,0,0,0.344319,131.856,39.2531)">
                    <path d="M131.071,91.346L130.826,91.214L130.58,91.1L130.316,90.968L130.032,90.836L129.749,90.722L129.428,90.609L129.107,90.496L128.767,90.382L128.408,90.288L128.049,90.213L127.653,90.137L127.256,90.08L126.822,90.043L126.387,90.005L125.934,90.005L125.462,90.005L124.99,90.005L124.499,90.043L123.989,90.099L123.46,90.194L122.931,90.345L122.402,90.553L121.874,90.817L121.345,91.157L120.835,91.572L120.344,92.063L119.872,92.668L119.418,93.367L119.003,94.198L118.606,95.142L118.247,96.199L117.945,97.408L117.832,98.088L117.756,98.749L117.719,99.41L117.738,100.052L117.794,100.694L117.926,101.299L118.096,101.865L118.304,102.432L118.587,102.942L118.927,103.433L119.324,103.867L119.777,104.264L120.287,104.604L120.873,104.887L121.515,105.133L122.232,105.303L122.478,105.359L122.761,105.416L123.101,105.454L123.479,105.491L123.894,105.529L124.801,105.529L125.273,105.491L125.764,105.435L126.255,105.34L126.727,105.208L127.2,105.057L127.672,104.849L128.106,104.604L128.503,104.302L128.88,103.962L128.03,109.004L127.917,109.099L127.804,109.212L127.653,109.344L127.483,109.458L127.275,109.609L127.01,109.741L126.708,109.873L126.368,109.986L125.934,110.119L125.443,110.213L124.877,110.288L124.216,110.364L123.479,110.402L122.629,110.421L121.666,110.402L120.608,110.345L119.739,110.251L118.87,110.062L118.002,109.779L117.133,109.401L116.302,108.948L115.509,108.381L114.753,107.72L114.055,106.964L113.431,106.115L112.902,105.17L112.449,104.113L112.109,102.961L111.883,101.695L111.807,100.354L111.845,98.881L112.053,97.314L112.204,96.539L112.374,95.784L112.563,95.047L112.751,94.349L112.959,93.688L113.205,93.027L113.45,92.403L113.715,91.818L113.998,91.232L114.281,90.685L114.602,90.156L114.942,89.665L115.282,89.193L115.66,88.739L116.038,88.324L116.434,87.927L116.869,87.55L117.303,87.191L117.756,86.87L118.228,86.568L118.738,86.284L119.248,86.039L119.777,85.812L120.325,85.604L120.91,85.415L121.496,85.264L122.1,85.132L122.742,85.019L123.384,84.924L124.064,84.849L124.744,84.811L125.462,84.792L126.066,84.811L126.652,84.849L127.218,84.905L127.785,84.981L128.314,85.057L128.824,85.17L129.315,85.264L129.768,85.378L130.202,85.491L130.58,85.604L130.939,85.717L131.241,85.831L131.505,85.925L131.732,86.001L131.902,86.076L132.015,86.114L131.071,91.346Z" style="fill:white;"/>
                </g>
                <g transform="matrix(0.344319,0,0,0.344319,131.856,39.2531)">
                    <path d="M131.071,91.346L130.826,91.214L130.58,91.1L130.316,90.968L130.032,90.836L129.749,90.722L129.428,90.609L129.107,90.496L128.767,90.382L128.408,90.288L128.049,90.213L127.653,90.137L127.256,90.08L126.822,90.043L126.387,90.005L125.934,90.005L125.462,90.005L124.99,90.005L124.499,90.043L123.989,90.099L123.46,90.194L122.931,90.345L122.402,90.553L121.874,90.817L121.345,91.157L120.835,91.572L120.344,92.063L119.872,92.668L119.418,93.367L119.003,94.198L118.606,95.142L118.247,96.199L117.945,97.408L117.832,98.088L117.756,98.749L117.719,99.41L117.738,100.052L117.794,100.694L117.926,101.299L118.096,101.865L118.304,102.432L118.587,102.942L118.927,103.433L119.324,103.867L119.777,104.264L120.287,104.604L120.873,104.887L121.515,105.133L122.232,105.303L122.478,105.359L122.761,105.416L123.101,105.454L123.479,105.491L123.894,105.529L124.801,105.529L125.273,105.491L125.764,105.435L126.255,105.34L126.727,105.208L127.2,105.057L127.672,104.849L128.106,104.604L128.503,104.302L128.88,103.962L128.03,109.004L127.917,109.099L127.804,109.212L127.653,109.344L127.483,109.458L127.275,109.609L127.01,109.741L126.708,109.873L126.368,109.986L125.934,110.119L125.443,110.213L124.877,110.288L124.216,110.364L123.479,110.402L122.629,110.421L121.666,110.402L120.608,110.345L119.739,110.251L118.87,110.062L118.002,109.779L117.133,109.401L116.302,108.948L115.509,108.381L114.753,107.72L114.055,106.964L113.431,106.115L112.902,105.17L112.449,104.113L112.109,102.961L111.883,101.695L111.807,100.354L111.845,98.881L112.053,97.314L112.204,96.539L112.374,95.784L112.563,95.047L112.751,94.349L112.959,93.688L113.205,93.027L113.45,92.403L113.715,91.818L113.998,91.232L114.281,90.685L114.602,90.156L114.942,89.665L115.282,89.193L115.66,88.739L116.038,88.324L116.434,87.927L116.869,87.55L117.303,87.191L117.756,86.87L118.228,86.568L118.738,86.284L119.248,86.039L119.777,85.812L120.325,85.604L120.91,85.415L121.496,85.264L122.1,85.132L122.742,85.019L123.384,84.924L124.064,84.849L124.744,84.811L125.462,84.792L126.066,84.811L126.652,84.849L127.218,84.905L127.785,84.981L128.314,85.057L128.824,85.17L129.315,85.264L129.768,85.378L130.202,85.491L130.58,85.604L130.939,85.717L131.241,85.831L131.505,85.925L131.732,86.001L131.902,86.076L132.015,86.114L131.071,91.346Z" style="fill:none;stroke:white;stroke-width:0.63px;"/>
                </g>
                <g transform="matrix(0.344319,0,0,0.344319,131.856,39.2531)">
                    <path d="M177.569,110.44L172.338,110.44L172.715,108.343L172.715,108.154L172.413,108.532L172.092,108.872L171.771,109.174L171.431,109.439L171.091,109.684L170.751,109.892L170.411,110.062L170.052,110.232L169.693,110.364L169.335,110.459L168.976,110.553L168.598,110.61L168.22,110.666L167.861,110.704L167.484,110.723L167.106,110.723L166.124,110.647L165.218,110.44L164.386,110.119L163.631,109.684L162.951,109.137L162.347,108.494L161.818,107.795L161.365,107.002L160.987,106.152L160.685,105.265L160.477,104.339L160.326,103.376L160.269,102.413L160.288,101.431L160.382,100.468L160.553,99.504L160.836,98.39L161.176,97.332L161.572,96.369L162.044,95.463L162.536,94.613L163.102,93.857L163.688,93.178L164.311,92.554L164.972,92.007L165.671,91.534L166.389,91.119L167.106,90.798L167.861,90.534L168.617,90.364L169.372,90.25L170.147,90.213L170.694,90.231L171.223,90.288L171.714,90.382L172.168,90.515L172.602,90.666L172.98,90.836L173.357,91.044L173.697,91.251L174,91.478L174.283,91.724L174.528,91.969L174.755,92.215L174.944,92.46L175.114,92.705L175.265,92.932L175.378,93.159L176.7,85.737L181.837,85.737L177.569,110.44Z" style="fill:white;"/>
                </g>
                <g transform="matrix(0.344319,0,0,0.344319,131.856,39.2531)">
                    <path d="M177.569,110.44L172.338,110.44L172.715,108.343L172.715,108.154L172.413,108.532L172.092,108.872L171.771,109.174L171.431,109.439L171.091,109.684L170.751,109.892L170.411,110.062L170.052,110.232L169.693,110.364L169.335,110.459L168.976,110.553L168.598,110.61L168.22,110.666L167.861,110.704L167.484,110.723L167.106,110.723L166.124,110.647L165.218,110.44L164.386,110.119L163.631,109.684L162.951,109.137L162.347,108.494L161.818,107.795L161.365,107.002L160.987,106.152L160.685,105.265L160.477,104.339L160.326,103.376L160.269,102.413L160.288,101.431L160.382,100.468L160.553,99.504L160.836,98.39L161.176,97.332L161.572,96.369L162.044,95.463L162.536,94.613L163.102,93.857L163.688,93.178L164.311,92.554L164.972,92.007L165.671,91.534L166.389,91.119L167.106,90.798L167.861,90.534L168.617,90.364L169.372,90.25L170.147,90.213L170.694,90.231L171.223,90.288L171.714,90.382L172.168,90.515L172.602,90.666L172.98,90.836L173.357,91.044L173.697,91.251L174,91.478L174.283,91.724L174.528,91.969L174.755,92.215L174.944,92.46L175.114,92.705L175.265,92.932L175.378,93.159L176.7,85.737L181.837,85.737L177.569,110.44Z" style="fill:none;stroke:white;stroke-width:0.63px;"/>
                </g>
                <g transform="matrix(0.344319,0,0,0.344319,131.856,39.2531)">
                    <path d="M169.014,105.869L169.543,105.831L170.033,105.718L170.487,105.586L170.921,105.378L171.318,105.152L171.696,104.868L172.054,104.547L172.375,104.207L172.658,103.829L172.923,103.414L173.168,102.98L173.376,102.526L173.565,102.054L173.716,101.563L173.848,101.053L173.943,100.543L174.037,100.014L174.094,99.467L174.094,98.957L174.075,98.428L174.019,97.937L173.943,97.465L173.811,97.012L173.66,96.577L173.471,96.199L173.244,95.841L172.999,95.538L172.715,95.274L172.394,95.047L172.054,94.896L171.696,94.802L171.299,94.764L170.789,94.802L170.317,94.877L169.882,95.028L169.448,95.218L169.07,95.463L168.693,95.765L168.371,96.086L168.05,96.445L167.767,96.861L167.503,97.295L167.257,97.748L167.049,98.239L166.86,98.749L166.709,99.259L166.558,99.807L166.445,100.354L166.351,101.185L166.389,102.092L166.521,103.017L166.766,103.905L167.144,104.679L167.635,105.303L168.258,105.718L169.014,105.869Z" style="fill:rgb(252,179,48);"/>
                </g>
                <g transform="matrix(0.344319,0,0,0.344319,131.856,39.2531)">
                    <path d="M53.033,106.247L52.278,110.44L47.518,110.44L47.651,109.665L47.745,108.966L47.821,108.438L47.896,108.154L47.632,108.456L47.33,108.759L46.971,109.042L46.575,109.307L46.121,109.571L45.649,109.798L45.158,110.024L44.648,110.213L44.1,110.383L43.553,110.515L43.005,110.628L42.438,110.704L41.89,110.742L41.343,110.761L40.814,110.704L40.304,110.628L39.643,110.459L39.039,110.27L38.51,110.024L38.038,109.741L37.622,109.439L37.244,109.099L36.942,108.74L36.678,108.362L36.451,107.966L36.262,107.55L36.111,107.135L35.998,106.719L35.922,106.285L35.866,105.85L35.828,105.435L35.828,105.019L35.885,104.283L35.998,103.584L36.187,102.923L36.432,102.281L36.734,101.677L37.075,101.129L37.471,100.6L37.925,100.128L38.397,99.693L38.926,99.297L39.473,98.938L40.04,98.636L40.644,98.371L41.268,98.164L41.909,97.993L42.57,97.88L42.608,97.88L42.702,97.861L42.835,97.842L43.043,97.824L43.269,97.786L43.534,97.767L43.817,97.729L44.138,97.691L44.459,97.654L44.78,97.616L45.12,97.597L45.422,97.559L45.724,97.54L46.008,97.522L46.272,97.503L46.914,97.503L47.368,97.522L47.783,97.54L48.199,97.54L48.538,97.559L48.803,97.578L48.992,97.597L49.048,97.597L49.086,97.465L49.199,97.125L49.294,96.728L49.332,96.369L49.256,95.954L49.086,95.576L48.86,95.236L48.557,94.953L48.199,94.708L47.802,94.538L47.348,94.424L46.857,94.386L46.329,94.367L45.762,94.349L45.177,94.349L44.572,94.367L43.949,94.405L43.345,94.462L42.74,94.518L42.155,94.594L41.588,94.67L41.04,94.764L40.55,94.859L40.097,94.953L39.681,95.066L39.341,95.18L39.076,95.312L38.869,95.425L40.21,90.873L40.625,90.704L41.04,90.553L41.494,90.42L41.947,90.326L42.4,90.231L42.892,90.156L43.382,90.08L43.892,90.043L44.421,90.005L44.969,89.986L45.535,89.967L47.348,89.967L48.009,89.986L48.67,90.005L49.199,90.043L49.766,90.137L50.351,90.269L50.956,90.439L51.541,90.666L52.108,90.93L52.674,91.251L53.203,91.61L53.675,92.026L54.091,92.479L54.469,92.989L54.752,93.555L54.941,94.16L55.054,94.802L55.054,95.52L54.941,96.275L53.033,106.247Z" style="fill:white;"/>
                </g>
                <g transform="matrix(0.344319,0,0,0.344319,131.856,39.2531)">
                    <path d="M53.033,106.247L52.278,110.44L47.518,110.44L47.651,109.665L47.745,108.966L47.821,108.438L47.896,108.154L47.632,108.456L47.33,108.759L46.971,109.042L46.575,109.307L46.121,109.571L45.649,109.798L45.158,110.024L44.648,110.213L44.1,110.383L43.553,110.515L43.005,110.628L42.438,110.704L41.89,110.742L41.343,110.761L40.814,110.704L40.304,110.628L39.643,110.459L39.039,110.27L38.51,110.024L38.038,109.741L37.622,109.439L37.244,109.099L36.942,108.74L36.678,108.362L36.451,107.966L36.262,107.55L36.111,107.135L35.998,106.719L35.922,106.285L35.866,105.85L35.828,105.435L35.828,105.019L35.885,104.283L35.998,103.584L36.187,102.923L36.432,102.281L36.734,101.677L37.075,101.129L37.471,100.6L37.925,100.128L38.397,99.693L38.926,99.297L39.473,98.938L40.04,98.636L40.644,98.371L41.268,98.164L41.909,97.993L42.57,97.88L42.608,97.88L42.702,97.861L42.835,97.842L43.043,97.824L43.269,97.786L43.534,97.767L43.817,97.729L44.138,97.691L44.459,97.654L44.78,97.616L45.12,97.597L45.422,97.559L45.724,97.54L46.008,97.522L46.272,97.503L46.914,97.503L47.368,97.522L47.783,97.54L48.199,97.54L48.538,97.559L48.803,97.578L48.992,97.597L49.048,97.597L49.086,97.465L49.199,97.125L49.294,96.728L49.332,96.369L49.256,95.954L49.086,95.576L48.86,95.236L48.557,94.953L48.199,94.708L47.802,94.538L47.348,94.424L46.857,94.386L46.329,94.367L45.762,94.349L45.177,94.349L44.572,94.367L43.949,94.405L43.345,94.462L42.74,94.518L42.155,94.594L41.588,94.67L41.04,94.764L40.55,94.859L40.097,94.953L39.681,95.066L39.341,95.18L39.076,95.312L38.869,95.425L40.21,90.873L40.625,90.704L41.04,90.553L41.494,90.42L41.947,90.326L42.4,90.231L42.892,90.156L43.382,90.08L43.892,90.043L44.421,90.005L44.969,89.986L45.535,89.967L47.348,89.967L48.009,89.986L48.67,90.005L49.199,90.043L49.766,90.137L50.351,90.269L50.956,90.439L51.541,90.666L52.108,90.93L52.674,91.251L53.203,91.61L53.675,92.026L54.091,92.479L54.469,92.989L54.752,93.555L54.941,94.16L55.054,94.802L55.054,95.52L54.941,96.275L53.033,106.247Z" style="fill:none;stroke:white;stroke-width:0.63px;"/>
                </g>
                <g transform="matrix(0.344319,0,0,0.344319,131.856,39.2531)">
                    <path d="M48.482,101.318L48.463,101.223L48.387,101.129L48.274,101.072L48.085,101.034L47.877,100.997L47.632,100.978L47.348,100.978L47.065,100.978L46.763,100.997L46.442,101.034L46.14,101.072L45.838,101.11L45.554,101.148L45.29,101.204L45.063,101.261L44.856,101.318L44.723,101.355L44.572,101.412L44.364,101.487L44.157,101.582L43.911,101.695L43.666,101.828L43.401,101.96L43.156,102.111L42.892,102.3L42.646,102.488L42.419,102.715L42.211,102.942L42.023,103.187L41.89,103.452L41.777,103.754L41.721,104.056L41.702,104.698L41.796,105.208L41.985,105.586L42.23,105.869L42.514,106.058L42.835,106.171L43.137,106.228L43.439,106.247L44.006,106.228L44.515,106.171L45.007,106.096L45.441,105.982L45.819,105.85L46.178,105.68L46.499,105.51L46.782,105.303L47.028,105.114L47.254,104.887L47.443,104.679L47.594,104.453L47.726,104.226L47.84,104L47.934,103.792L47.991,103.584L48.142,103.036L48.274,102.413L48.387,101.809L48.482,101.318Z" style="fill:rgb(237,27,45);"/>
                </g>
                <g transform="matrix(0.344319,0,0,0.344319,131.856,39.2531)">
                    <path d="M13.297,110.44L8.16,110.44L12.447,85.642L21.38,85.642L22.23,100.354L28.406,85.642L37.736,85.642L33.354,110.44L28.217,110.44L31.465,91.912L31.258,91.912L23.571,110.44L17.773,110.44L17.735,109.665L17.603,107.607L17.433,104.679L17.244,101.318L17.055,97.937L16.885,94.972L16.753,92.819L16.715,91.912L16.658,91.912L16.545,91.912L16.432,91.912L13.297,110.44Z" style="fill:white;"/>
                </g>
                <g transform="matrix(0.344319,0,0,0.344319,131.856,39.2531)">
                    <path d="M13.297,110.44L8.16,110.44L12.447,85.642L21.38,85.642L22.23,100.354L28.406,85.642L37.736,85.642L33.354,110.44L28.217,110.44L31.465,91.912L31.258,91.912L23.571,110.44L17.773,110.44L17.735,109.665L17.603,107.607L17.433,104.679L17.244,101.318L17.055,97.937L16.885,94.972L16.753,92.819L16.715,91.912L16.658,91.912L16.545,91.912L16.432,91.912L13.297,110.44Z" style="fill:none;stroke:white;stroke-width:0.63px;"/>
                </g>
                <g transform="matrix(0.344319,0,0,0.344319,131.856,39.2531)">
                    <path d="M146.766,106.247L145.992,110.44L141.251,110.44L141.289,109.665L141.308,108.985L141.308,108.475L141.345,108.249L141.1,108.532L140.816,108.815L140.477,109.08L140.099,109.344L139.702,109.59L139.249,109.816L138.777,110.043L138.305,110.232L137.795,110.383L137.266,110.534L136.737,110.628L136.208,110.704L135.66,110.742L135.132,110.761L134.622,110.704L134.112,110.628L133.432,110.459L132.827,110.27L132.299,110.024L131.808,109.741L131.392,109.439L131.033,109.099L130.731,108.74L130.467,108.362L130.24,107.966L130.07,107.55L129.919,107.135L129.825,106.719L129.749,106.285L129.692,105.85L129.655,105.435L129.655,105.019L129.692,104.283L129.806,103.584L129.976,102.923L130.221,102.281L130.504,101.677L130.863,101.129L131.26,100.6L131.694,100.128L132.185,99.693L132.695,99.297L133.243,98.938L133.829,98.636L134.414,98.371L135.037,98.164L135.66,97.993L136.303,97.88L136.34,97.88L136.435,97.861L136.567,97.842L136.756,97.824L137.001,97.786L137.266,97.767L137.549,97.729L137.851,97.691L138.173,97.654L138.512,97.616L138.834,97.597L139.154,97.559L139.457,97.54L139.721,97.522L139.985,97.503L140.647,97.503L141.1,97.522L141.534,97.54L141.95,97.54L142.308,97.559L142.611,97.578L142.781,97.597L142.856,97.597L142.894,97.465L142.951,97.125L143.007,96.728L143.045,96.369L142.97,95.954L142.819,95.576L142.573,95.236L142.29,94.953L141.95,94.708L141.553,94.538L141.137,94.424L140.684,94.386L140.155,94.367L139.589,94.349L139.003,94.349L138.399,94.367L137.776,94.405L137.171,94.462L136.567,94.518L135.982,94.594L135.415,94.67L134.867,94.764L134.376,94.859L133.923,94.953L133.507,95.066L133.168,95.18L132.903,95.312L132.695,95.425L134.017,90.873L134.433,90.704L134.867,90.553L135.302,90.42L135.755,90.326L136.227,90.231L136.699,90.156L137.19,90.08L137.7,90.043L138.229,90.005L138.777,89.986L139.324,89.967L141.1,89.967L141.742,89.986L142.384,90.005L142.913,90.043L143.479,90.137L144.065,90.269L144.669,90.439L145.255,90.666L145.84,90.93L146.407,91.251L146.935,91.61L147.408,92.026L147.842,92.479L148.22,92.989L148.503,93.555L148.711,94.16L148.843,94.802L148.843,95.52L148.749,96.275L146.766,106.247Z" style="fill:white;"/>
                </g>
                <g transform="matrix(0.344319,0,0,0.344319,131.856,39.2531)">
                    <path d="M145.992,110.572L146.105,110.459L146.879,106.266L146.652,106.228L145.878,110.421L145.992,110.307L145.992,110.572L146.086,110.553L146.105,110.459L145.992,110.572Z" style="fill:white;"/>
                </g>
                <g transform="matrix(0.344319,0,0,0.344319,131.856,39.2531)">
                    <path d="M141.137,110.44L141.251,110.572L145.992,110.572L145.992,110.307L141.251,110.307L141.364,110.44L141.137,110.44L141.119,110.572L141.251,110.572L141.137,110.44Z" style="fill:white;"/>
                </g>
                <g transform="matrix(0.344319,0,0,0.344319,131.856,39.2531)">
                    <path d="M141.44,108.324L141.27,108.173L141.194,108.475L141.175,108.985L141.175,109.665L141.137,110.44L141.364,110.44L141.402,109.665L141.44,108.985L141.421,108.475L141.421,108.324L141.251,108.173L141.44,108.324Z" style="fill:white;"/>
                </g>
                <g transform="matrix(0.344319,0,0,0.344319,131.856,39.2531)">
                    <path d="M134.093,110.742L134.622,110.817L135.132,110.874L135.66,110.855L136.208,110.817L136.756,110.742L137.285,110.647L137.814,110.496L138.342,110.345L138.814,110.156L139.305,109.93L139.759,109.703L140.155,109.439L140.552,109.174L140.892,108.91L141.194,108.608L141.44,108.324L141.251,108.173L141.005,108.456L140.741,108.721L140.401,108.985L140.042,109.25L139.646,109.476L139.192,109.703L138.739,109.93L138.267,110.119L137.776,110.27L137.247,110.421L136.718,110.515L136.208,110.591L135.66,110.628L135.132,110.647L134.622,110.591L134.131,110.515L134.093,110.742Z" style="fill:white;"/>
                </g>
                <g transform="matrix(0.344319,0,0,0.344319,131.856,39.2531)">
                    <path d="M129.523,105.019L129.541,105.435L129.579,105.85L129.636,106.304L129.711,106.738L129.806,107.153L129.957,107.588L130.127,108.022L130.372,108.419L130.637,108.815L130.939,109.174L131.317,109.533L131.751,109.835L132.242,110.137L132.79,110.383L133.413,110.572L134.093,110.742L134.131,110.515L133.451,110.345L132.865,110.156L132.355,109.911L131.864,109.646L131.468,109.344L131.128,109.023L130.826,108.664L130.561,108.305L130.353,107.909L130.184,107.512L130.032,107.116L129.938,106.7L129.862,106.266L129.806,105.85L129.768,105.435L129.787,105.019L129.523,105.019Z" style="fill:white;"/>
                </g>
                <g transform="matrix(0.344319,0,0,0.344319,131.856,39.2531)">
                    <path d="M136.303,97.767L135.642,97.88L134.999,98.05L134.376,98.258L133.772,98.522L133.186,98.825L132.62,99.202L132.11,99.599L131.619,100.052L131.166,100.524L130.769,101.053L130.391,101.62L130.108,102.243L129.862,102.885L129.692,103.565L129.579,104.283L129.523,105.019L129.787,105.019L129.806,104.283L129.919,103.603L130.089,102.961L130.335,102.319L130.618,101.733L130.958,101.204L131.354,100.675L131.77,100.203L132.261,99.788L132.771,99.391L133.3,99.051L133.885,98.749L134.452,98.485L135.075,98.277L135.679,98.107L136.303,97.993L136.303,97.767Z" style="fill:white;"/>
                </g>
                <g transform="matrix(0.344319,0,0,0.344319,131.856,39.2531)">
                    <path d="M140.193,97.37L139.985,97.37L139.721,97.408L139.457,97.427L139.154,97.446L138.834,97.484L138.512,97.503L138.173,97.54L137.851,97.578L137.549,97.616L137.266,97.654L137.001,97.673L136.756,97.71L136.567,97.729L136.416,97.748L136.34,97.767L136.303,97.767L136.303,97.993L136.34,97.993L136.454,97.975L136.567,97.956L136.756,97.937L137.001,97.899L137.266,97.88L137.549,97.842L137.851,97.805L138.173,97.767L138.512,97.729L138.834,97.71L139.154,97.673L139.457,97.654L139.721,97.635L140.193,97.635L140.193,97.37Z" style="fill:white;"/>
                </g>
                <g transform="matrix(0.344319,0,0,0.344319,131.856,39.2531)">
                    <path d="M142.743,97.578L142.856,97.484L142.781,97.484L142.611,97.465L142.308,97.446L141.95,97.408L141.534,97.408L141.1,97.408L140.647,97.37L140.193,97.37L140.193,97.635L141.1,97.635L141.534,97.673L142.308,97.673L142.611,97.691L142.781,97.71L142.856,97.71L142.97,97.616L142.856,97.71L142.951,97.729L142.97,97.616L142.743,97.578Z" style="fill:white;"/>
                </g>
                <g transform="matrix(0.344319,0,0,0.344319,131.856,39.2531)">
                    <path d="M142.932,96.369L142.913,96.369L142.894,96.728L142.837,97.106L142.781,97.446L142.743,97.578L142.97,97.616L143.007,97.484L143.064,97.144L143.121,96.728L143.177,96.369L143.158,96.369L142.932,96.369Z" style="fill:white;"/>
                </g>
                <g transform="matrix(0.344319,0,0,0.344319,131.856,39.2531)">
                    <path d="M140.684,94.5L140.684,94.518L141.119,94.538L141.515,94.651L141.893,94.821L142.214,95.047L142.478,95.312L142.705,95.633L142.856,95.973L142.932,96.369L143.158,96.369L143.083,95.935L142.932,95.52L142.667,95.161L142.365,94.859L142.007,94.594L141.591,94.424L141.157,94.311L140.684,94.254L140.684,94.5Z" style="fill:white;"/>
                </g>
                <g transform="matrix(0.344319,0,0,0.344319,131.856,39.2531)">
                    <path d="M132.582,95.406L132.771,95.52L132.96,95.425L133.205,95.293L133.526,95.18L133.942,95.066L134.395,94.972L134.886,94.877L135.434,94.783L135.982,94.708L136.567,94.632L137.171,94.575L137.776,94.518L138.399,94.481L140.155,94.481L140.684,94.5L140.684,94.273L140.155,94.254L139.589,94.216L139.003,94.216L138.399,94.254L137.776,94.292L137.171,94.349L136.567,94.405L135.982,94.481L135.396,94.556L134.848,94.651L134.357,94.745L133.904,94.84L133.489,94.953L133.13,95.066L132.846,95.199L132.62,95.331L132.809,95.444L132.582,95.406Z" style="fill:white;"/>
                </g>
                <g transform="matrix(0.344319,0,0,0.344319,131.856,39.2531)">
                    <path d="M133.98,90.76L133.904,90.855L132.582,95.406L132.809,95.444L134.131,90.892L134.055,90.987L133.98,90.76L133.923,90.779L133.904,90.855L133.98,90.76Z" style="fill:white;"/>
                </g>
                <g transform="matrix(0.344319,0,0,0.344319,131.856,39.2531)">
                    <path d="M142.384,89.892L141.742,89.854L141.1,89.835L140.496,89.835L139.91,89.835L139.324,89.835L138.777,89.873L138.229,89.892L137.7,89.929L137.19,89.967L136.68,90.043L136.208,90.118L135.736,90.213L135.283,90.307L134.83,90.439L134.395,90.59L133.98,90.76L134.055,90.987L134.471,90.817L134.905,90.666L135.321,90.534L135.774,90.439L136.246,90.345L136.718,90.269L137.19,90.194L137.7,90.156L138.229,90.118L138.777,90.099L141.1,90.099L141.742,90.118L142.384,90.118L142.384,89.892Z" style="fill:white;"/>
                </g>
                <g transform="matrix(0.344319,0,0,0.344319,131.856,39.2531)">
                    <path d="M148.862,96.294L148.956,95.52L148.956,94.802L148.824,94.141L148.616,93.518L148.315,92.932L147.936,92.403L147.483,91.931L147.011,91.516L146.464,91.157L145.897,90.817L145.293,90.553L144.707,90.326L144.084,90.156L143.498,90.024L142.913,89.929L142.384,89.892L142.384,90.118L142.913,90.156L143.46,90.25L144.046,90.382L144.631,90.553L145.217,90.779L145.783,91.044L146.35,91.346L146.86,91.705L147.332,92.12L147.748,92.554L148.125,93.045L148.39,93.593L148.597,94.179L148.73,94.802L148.73,95.52L148.635,96.256L148.862,96.294Z" style="fill:white;"/>
                </g>
                <g transform="matrix(0.344319,0,0,0.344319,131.856,39.2531)">
                    <path d="M146.879,106.266L148.862,96.294L148.635,96.256L146.652,106.228L146.879,106.266Z" style="fill:white;"/>
                </g>
                <g transform="matrix(0.344319,0,0,0.344319,131.856,39.2531)">
                    <path d="M142.195,101.318L142.157,101.204L142.082,101.11L141.95,101.053L141.761,100.997L141.553,100.978L141.308,100.959L141.024,100.959L140.741,100.978L140.439,101.016L140.137,101.053L139.834,101.091L139.551,101.129L139.268,101.185L139.022,101.223L138.777,101.28L138.588,101.318L138.456,101.336L138.305,101.393L138.116,101.45L137.908,101.525L137.663,101.639L137.436,101.752L137.171,101.884L136.926,102.054L136.68,102.224L136.435,102.432L136.227,102.639L136.019,102.885L135.849,103.149L135.717,103.433L135.604,103.735L135.547,104.056L135.528,104.698L135.623,105.208L135.774,105.586L136.001,105.869L136.284,106.058L136.605,106.171L136.926,106.228L137.247,106.247L137.814,106.228L138.342,106.171L138.834,106.077L139.268,105.945L139.684,105.794L140.042,105.624L140.382,105.435L140.684,105.208L140.949,105L141.175,104.755L141.383,104.528L141.553,104.283L141.685,104.056L141.78,103.829L141.855,103.603L141.912,103.395L141.988,102.866L142.082,102.319L142.157,101.79L142.195,101.318Z" style="fill:rgb(252,179,48);"/>
                </g>
                <g transform="matrix(0.344319,0,0,0.344319,131.856,39.2531)">
                    <path d="M148.182,110.44L153.508,110.44L155.416,99.693L155.491,99.278L155.604,98.862L155.718,98.447L155.869,98.031L156.058,97.616L156.284,97.219L156.53,96.841L156.832,96.483L157.172,96.162L157.55,95.86L157.984,95.576L158.475,95.35L159.023,95.161L159.627,95.01L160.288,94.896L161.025,94.859L161.497,94.859L162.347,90.005L161.818,90.043L161.308,90.099L160.836,90.194L160.382,90.326L159.967,90.477L159.57,90.666L159.193,90.873L158.834,91.1L158.494,91.365L158.173,91.629L157.871,91.931L157.569,92.234L157.285,92.554L157.002,92.913L156.719,93.253L156.454,93.631L157.021,90.213L151.714,90.213L148.182,110.44Z" style="fill:white;"/>
                </g>
                <g transform="matrix(0.344319,0,0,0.344319,131.856,39.2531)">
                    <path d="M148.182,110.44L153.508,110.44L155.416,99.693L155.491,99.278L155.604,98.862L155.718,98.447L155.869,98.031L156.058,97.616L156.284,97.219L156.53,96.841L156.832,96.483L157.172,96.162L157.55,95.86L157.984,95.576L158.475,95.35L159.023,95.161L159.627,95.01L160.288,94.896L161.025,94.859L161.497,94.859L162.347,90.005L161.818,90.043L161.308,90.099L160.836,90.194L160.382,90.326L159.967,90.477L159.57,90.666L159.193,90.873L158.834,91.1L158.494,91.365L158.173,91.629L157.871,91.931L157.569,92.234L157.285,92.554L157.002,92.913L156.719,93.253L156.454,93.631L157.021,90.213L151.714,90.213L148.182,110.44Z" style="fill:none;stroke:white;stroke-width:0.63px;"/>
                </g>
                <g transform="matrix(0.344319,0,0,0.344319,131.856,39.2531)">
                    <path d="M98.171,110.44L103.592,110.44L105.405,99.693L105.48,99.278L105.575,98.881L105.669,98.485L105.801,98.107L105.952,97.729L106.141,97.37L106.368,97.03L106.632,96.709L106.935,96.426L107.275,96.143L107.69,95.916L108.143,95.708L108.672,95.538L109.258,95.387L109.9,95.293L110.636,95.236L110.693,95.236L110.769,95.255L110.863,95.274L110.957,95.274L111.052,95.293L111.127,95.312L111.184,95.331L111.203,95.331L111.222,95.255L111.278,95.028L111.354,94.689L111.448,94.273L111.581,93.782L111.713,93.253L111.883,92.724L112.053,92.196L112.204,91.837L112.393,91.478L112.582,91.119L112.77,90.798L112.94,90.515L113.073,90.288L113.167,90.156L113.205,90.099L113.186,90.099L113.11,90.08L113.016,90.062L112.884,90.043L112.751,90.043L112.6,90.024L112.468,90.005L112.336,90.005L111.75,90.043L111.222,90.099L110.731,90.194L110.277,90.307L109.843,90.458L109.446,90.647L109.088,90.836L108.748,91.062L108.427,91.308L108.124,91.591L107.841,91.875L107.558,92.196L107.275,92.517L107.01,92.876L106.727,93.253L106.443,93.631L107.123,90.213L101.703,90.213L98.171,110.44Z" style="fill:white;"/>
                </g>
                <g transform="matrix(0.344319,0,0,0.344319,131.856,39.2531)">
                    <path d="M98.171,110.44L103.592,110.44L105.405,99.693L105.48,99.278L105.575,98.881L105.669,98.485L105.801,98.107L105.952,97.729L106.141,97.37L106.368,97.03L106.632,96.709L106.935,96.426L107.275,96.143L107.69,95.916L108.143,95.708L108.672,95.538L109.258,95.387L109.9,95.293L110.636,95.236L110.693,95.236L110.769,95.255L110.863,95.274L110.957,95.274L111.052,95.293L111.127,95.312L111.184,95.331L111.203,95.331L111.222,95.255L111.278,95.028L111.354,94.689L111.448,94.273L111.581,93.782L111.713,93.253L111.883,92.724L112.053,92.196L112.204,91.837L112.393,91.478L112.582,91.119L112.77,90.798L112.94,90.515L113.073,90.288L113.167,90.156L113.205,90.099L113.186,90.099L113.11,90.08L113.016,90.062L112.884,90.043L112.751,90.043L112.6,90.024L112.468,90.005L112.336,90.005L111.75,90.043L111.222,90.099L110.731,90.194L110.277,90.307L109.843,90.458L109.446,90.647L109.088,90.836L108.748,91.062L108.427,91.308L108.124,91.591L107.841,91.875L107.558,92.196L107.275,92.517L107.01,92.876L106.727,93.253L106.443,93.631L107.123,90.213L101.703,90.213L98.171,110.44Z" style="fill:none;stroke:white;stroke-width:0.63px;"/>
                </g>
                <g transform="matrix(0.344319,0,0,0.344319,131.856,39.2531)">
                    <path d="M181.082,130.723L181.139,130.308L181.686,130.308L181.686,130.327L181.649,130.723L181.082,130.723Z" style="fill:rgb(252,179,48);"/>
                </g>
            </g>
            <g id="Layer-1" serif:id="Layer 1">
            </g>
            <g id="Layer-11" serif:id="Layer 1">
            </g>
        </g>
    </g>
</svg>
