<svg width="13" height="11" viewBox="0 0 13 11" fill="none" xmlns="http://www.w3.org/2000/svg">
<path d="M0.893683 4.73548C4.38333 3.18313 6.71031 2.15973 7.87464 1.66528C11.199 0.253503 11.8898 0.0082626 12.34 7.85146e-05C12.439 -0.00161629 12.6604 0.0234411 12.8038 0.142261C12.9249 0.242598 12.9583 0.378128 12.9742 0.473257C12.9901 0.568379 13.01 0.785078 12.9942 0.954402C12.8141 2.88701 12.0346 7.57696 11.638 9.74151C11.4702 10.6574 11.1398 10.9645 10.8199 10.9945C10.1248 11.0599 9.59694 10.5255 8.92366 10.0749C7.87005 9.36975 7.27485 8.93077 6.25224 8.24266C5.07034 7.44748 5.83649 7.01047 6.51007 6.29615C6.6863 6.10923 9.74916 3.26477 9.80842 3.00673C9.81586 2.97447 9.82271 2.85417 9.75275 2.79065C9.68273 2.72713 9.57945 2.74885 9.5049 2.76613C9.39922 2.79061 7.71617 3.92645 4.45566 6.17364C3.97792 6.50861 3.5452 6.67178 3.1575 6.66322C2.73009 6.65378 1.90793 6.41647 1.29673 6.21364C0.547076 5.96483 -0.0487322 5.83328 0.00314936 5.41073C0.0301722 5.19064 0.327018 4.96556 0.893683 4.73548Z"  fill='#818181'/>
</svg>
