<svg width="15" height="11" viewBox="0 0 15 11" fill="none" xmlns="http://www.w3.org/2000/svg">
<path d="M15 1.30223C14.4422 1.52308 13.8478 1.66946 13.2281 1.74054C13.8656 1.397 14.3522 0.857152 14.5809 0.206462C13.9866 0.526307 13.3303 0.752232 12.6309 0.878305C12.0665 0.335923 11.2621 0 10.3846 0C8.68222 0 7.31156 1.24723 7.31156 2.77623C7.31156 2.99623 7.33219 3.20777 7.38281 3.40915C4.82625 3.29662 2.56406 2.1907 1.04438 0.506C0.779063 0.921464 0.623438 1.397 0.623438 1.90892C0.623438 2.87015 1.17187 3.72223 1.98937 4.21554C1.49531 4.20708 1.01063 4.07762 0.6 3.87369C0.6 3.88215 0.6 3.89315 0.6 3.90415C0.6 5.25292 1.66594 6.37323 3.06375 6.63132C2.81344 6.69305 2.54062 6.72268 2.2575 6.72268C2.06063 6.72268 1.86188 6.71252 1.67531 6.67532C2.07375 7.77448 3.20438 8.58252 4.54875 8.60879C3.5025 9.34748 2.17406 9.79252 0.735937 9.79252C0.48375 9.79252 0.241875 9.78236 0 9.75448C1.36219 10.5473 2.97656 11 4.7175 11C10.3763 11 13.47 6.76921 13.47 3.102C13.47 2.9793 13.4653 2.86085 13.4587 2.74323C14.0691 2.3523 14.5819 1.86408 15 1.30223Z" fill='#818181'/>
</svg>
