<svg width="20" height="20" viewBox="0 0 20 20" fill="none" xmlns="http://www.w3.org/2000/svg">
<path d="M19.7957 11.5783C20.4466 6.56022 19.483 3.39218 17.7448 1.95928L17.7457 1.95845C14.9402 -0.488562 5.46565 -0.850743 2.10928 2.06835C0.601999 3.49626 0.071088 5.59191 0.012906 8.18629C-0.045276 10.7815 -0.114367 15.643 4.83201 16.9619H4.83656L4.83201 18.9759C4.83201 18.9759 4.79838 19.7919 5.36747 19.9559C6.01838 20.1491 6.31293 19.7702 8.33748 17.5555C11.7229 17.8245 14.323 17.2083 14.6184 17.1184C15.302 16.9086 19.1702 16.4398 19.7957 11.5783ZM8.67112 16.1384C8.67112 16.1384 6.52838 18.5854 5.86202 19.2207C5.64383 19.4272 5.40474 19.4081 5.40838 18.9984C5.40838 18.7295 5.42474 15.6547 5.42474 15.6547C1.23109 14.554 1.47837 10.4143 1.52382 8.24873C1.56927 6.08231 2.002 4.30804 3.27837 3.11326C6.22293 0.584658 14.5293 1.14999 16.6457 2.97172C19.233 5.07237 18.3121 11.0071 18.3175 11.2095C17.7857 15.2675 14.6511 15.5248 14.0748 15.7005C13.8284 15.7754 11.542 16.3141 8.67112 16.1384Z" fill="#fff"/>
<path d="M9.85662 3.58887C9.50662 3.58887 9.50662 4.08843 9.85662 4.09259C12.5721 4.11174 14.8085 5.84521 14.833 9.02491C14.833 9.36044 15.3694 9.35628 15.3648 9.02074C15.3357 5.5946 12.893 3.60802 9.85662 3.58887Z" fill="#fff"/>
<path d="M13.4284 8.49688C13.4202 8.82826 13.9557 8.84408 13.9602 8.50854C14.0048 6.61937 12.7329 5.06324 10.3429 4.89922C9.99292 4.87591 9.95656 5.37963 10.3057 5.40294C12.3784 5.54698 13.4702 6.84251 13.4284 8.49688Z" fill="#fff"/>
<path d="M12.8557 10.6459C12.4066 10.4078 11.9493 10.556 11.7602 10.7899L11.3648 11.2587C11.1639 11.4968 10.7884 11.4652 10.7884 11.4652C8.04839 10.8016 7.31566 8.17556 7.31566 8.17556C7.31566 8.17556 7.28202 7.82004 7.53293 7.62937L8.02748 7.25471C8.27475 7.07486 8.43112 6.64191 8.1793 6.21645C7.50657 5.10327 7.05475 4.71944 6.82475 4.4247C6.58293 4.14745 6.21929 4.085 5.84111 4.27234H5.83293C5.04656 4.69363 4.18565 5.4821 4.4611 6.29389C4.93111 7.1498 5.79475 9.87822 8.54748 11.9397C9.84112 12.9147 11.8884 13.9138 12.7575 14.1445L12.7657 14.1561C13.622 14.4176 14.4548 13.5983 14.8993 12.8564V12.8506C15.0966 12.4918 15.0311 12.1521 14.743 11.9297C14.232 11.4735 13.4611 10.9698 12.8557 10.6459Z" fill="#fff"/>
<path d="M10.7175 6.75816C11.5911 6.80479 12.0148 7.22275 12.0602 8.08116C12.0766 8.4167 12.6084 8.39339 12.592 8.05785C12.5338 6.93717 11.8957 6.31272 10.7466 6.25444C10.3966 6.23529 10.3638 6.73901 10.7175 6.75816Z" fill="#fff"/>
</svg>
