<svg width="15" height="11" viewBox="0 0 15 11" fill="none" xmlns="http://www.w3.org/2000/svg">
<path fill-rule="evenodd" clip-rule="evenodd" d="M14.6558 0.744847C14.7601 0.315492 14.6558 0 14.1596 0H12.5186C12.1013 0 11.909 0.27254 11.8046 0.573071C11.8046 0.573071 10.9701 3.08477 9.78789 4.71628C9.40545 5.18855 9.23157 5.33881 9.02295 5.33881C8.91864 5.33881 8.76764 5.18855 8.76764 4.75923V0.744847C8.76764 0.229622 8.64657 0 8.29882 0H5.72009C5.45934 0 5.30252 0.239128 5.30252 0.465755C5.30252 0.954184 5.89359 1.06682 5.95452 2.44075V5.42472C5.95452 6.07894 5.85884 6.19756 5.65021 6.19756C5.0939 6.19756 3.74067 3.67465 2.93808 0.787769C2.7808 0.226656 2.62304 0 2.20365 0H0.562637C0.0937776 0 0 0.27254 0 0.573071C0 1.10978 0.556339 3.77173 2.5904 7.29234C3.94644 9.69672 5.85699 11 7.59551 11C8.63863 11 8.7677 10.7106 8.7677 10.2119V8.39476C8.7677 7.81579 8.86651 7.70022 9.19682 7.70022C9.4402 7.70022 9.85745 7.85048 10.831 9.00973C11.9437 10.3836 12.1271 11 12.753 11H14.394C14.8628 11 15.0973 10.7106 14.962 10.1393C14.814 9.56993 14.2828 8.74383 13.578 7.76461C13.1955 7.20647 12.6217 6.60544 12.4478 6.30484C12.2045 5.91847 12.274 5.74669 12.4478 5.40324C12.4478 5.40324 14.4472 1.92553 14.6558 0.744847Z"  fill='#818181'/>
</svg>
