<svg width="20" height="20" viewBox="0 0 20 20" fill="none" xmlns="http://www.w3.org/2000/svg">
<path d="M10.0025 0H9.9975C4.48375 0 0 4.485 0 10C0 12.1875 0.705 14.215 1.90375 15.8613L0.6575 19.5763L4.50125 18.3475C6.0825 19.395 7.96875 20 10.0025 20C15.5162 20 20 15.5137 20 10C20 4.48625 15.5162 0 10.0025 0Z" fill="#4CAF50"/>
<path d="M15.8213 14.1217C15.58 14.803 14.6225 15.368 13.8588 15.533C13.3363 15.6442 12.6538 15.733 10.3563 14.7805C7.4175 13.563 5.525 10.5767 5.3775 10.383C5.23625 10.1892 4.19 8.80172 4.19 7.36672C4.19 5.93172 4.91875 5.23297 5.2125 4.93297C5.45375 4.68672 5.8525 4.57422 6.235 4.57422C6.35875 4.57422 6.47 4.58047 6.57 4.58547C6.86375 4.59797 7.01125 4.61547 7.205 5.07922C7.44625 5.66047 8.03375 7.09547 8.10375 7.24297C8.175 7.39047 8.24625 7.59047 8.14625 7.78422C8.0525 7.98422 7.97 8.07297 7.8225 8.24297C7.675 8.41297 7.535 8.54297 7.3875 8.72547C7.2525 8.88422 7.1 9.05422 7.27 9.34797C7.44 9.63547 8.0275 10.5942 8.8925 11.3642C10.0088 12.358 10.9138 12.6755 11.2375 12.8105C11.4788 12.9105 11.7663 12.8867 11.9425 12.6992C12.1663 12.458 12.4425 12.058 12.7238 11.6642C12.9238 11.3817 13.1763 11.3467 13.4413 11.4467C13.7113 11.5405 15.14 12.2467 15.4338 12.393C15.7275 12.5405 15.9213 12.6105 15.9925 12.7342C16.0625 12.858 16.0625 13.4392 15.8213 14.1217Z" fill="#FAFAFA"/>
</svg>
